<svg xmlns="http://www.w3.org/2000/svg" width="1024" height="1024" viewBox="0 0 1024 1024">
  <rect width="1024" height="1024" rx="190" fill="#fff7ed"/>
  <path d="M 407.00 520.00 L 407.02 516.33 L 407.07 512.66 L 407.16 508.99 L 407.29 505.33 L 407.45 501.67 L 407.65 498.01 L 407.88 494.35 L 408.15 490.70 L 408.45 487.05 L 408.79 483.41 L 409.17 479.77 L 409.58 476.14 L 410.02 472.52 L 410.51 468.91 L 411.02 465.30 L 411.57 461.71 L 412.16 458.12 L 412.78 454.54 L 413.44 450.98 L 414.13 447.42 L 414.85 443.88 L 415.61 440.35 L 416.41 436.84 L 417.23 433.33 L 418.09 429.85 L 418.99 426.37 L 419.92 422.92 L 420.88 419.47 L 421.87 416.05 L 422.90 412.64 L 423.95 409.25 L 425.05 405.88 L 426.17 402.53 L 427.32 399.19 L 428.51 395.88 L 429.73 392.59 L 430.97 389.32 L 432.25 386.07 L 433.56 382.84 L 434.90 379.63 L 436.27 376.45 L 437.67 373.29 L 439.10 370.16 L 440.56 367.05 L 442.04 363.96 L 443.56 360.91 L 445.10 357.87 L 446.67 354.87 L 448.27 351.89 L 449.89 348.94 L 451.54 346.02 L 453.22 343.12 L 454.92 340.26 L 456.65 337.42 L 458.40 334.62 L 460.18 331.84 L 461.98 329.10 L 463.81 326.39 L 465.66 323.71 L 467.53 321.06 L 469.43 318.44 L 471.34 315.86 L 473.28 313.31 L 475.25 310.79 L 477.23 308.31 L 479.23 305.86 L 481.25 303.45 L 483.30 301.08 L 485.36 298.73 L 487.44 296.43 L 489.54 294.16 L 491.66 291.93 L 493.79 289.74 L 495.95 287.58 L 498.11 285.46 L 500.30 283.38 L 502.50 281.34 L 504.71 279.33 L 506.94 277.37 L 509.19 275.44 L 511.44 273.56 L 513.71 271.71 L 516.00 269.90 L 518.29 268.14 L 520.60 266.42 L 522.92 264.73 L 525.25 263.09 L 527.58 261.49 L 529.93 259.93 L 532.29 258.41 L 534.65 256.94 L 537.03 255.50 L 539.41 254.11 L 541.80 252.76 L 544.19 251.46 L 546.59 250.20 L 549.00 248.98 L 551.41 247.80 L 553.82 246.67 L 556.24 245.58 L 558.66 244.53 L 561.08 243.53 L 563.51 242.58 L 565.93 241.66 L 568.36 240.79 L 570.79 239.97 L 573.22 239.19 L 575.65 238.45 L 578.07 237.76 L 580.50 237.11 L 582.92 236.51 L 585.34 235.95 L 587.76 235.44 L 590.17 234.97 L 592.58 234.55 L 594.98 234.17 L 597.37 233.83 L 599.77 233.54 L 602.15 233.30 L 604.53 233.10 L 606.90 232.94 L 609.26 232.83 L 611.61 232.76 L 613.95 232.74 L 616.28 232.76 L 618.60 232.83 L 620.91 232.94 L 623.21 233.09 L 625.50 233.29 L 627.78 233.53 L 630.04 233.82 L 632.28 234.15 L 634.52 234.53 L 636.74 234.94 L 638.94 235.40 L 641.13 235.91 L 643.30 236.45 L 645.45 237.04 L 647.59 237.68 L 649.71 238.35 L 651.81 239.07 L 653.89 239.83 L 655.96 240.63 L 658.00 241.47 L 660.02 242.35 L 662.03 243.28 L 664.01 244.24 L 665.97 245.25 L 667.90 246.30 L 669.82 247.39 L 671.71 248.51 L 673.58 249.68 L 675.42 250.89 L 677.24 252.13 L 679.03 253.42 L 680.80 254.74 L 682.54 256.10 L 684.26 257.50 L 685.95 258.94 L 687.61 260.41 L 689.25 261.92 L 690.85 263.47 L 692.43 265.05 L 693.98 266.67 L 695.50 268.32 L 696.99 270.01 L 698.45 271.74 L 699.88 273.50 L 701.28 275.29 L 702.65 277.11 L 703.99 278.97 L 705.29 280.87 L 706.57 282.79 L 707.81 284.75 L 709.01 286.74 L 710.19 288.76 L 711.33 290.80 L 712.43 292.89 L 713.51 295.00 L 714.55 297.13 L 715.55 299.30 L 716.52 301.50 L 717.45 303.72 L 718.35 305.98 L 719.21 308.26 L 720.03 310.56 L 720.82 312.89 L 721.57 315.25 L 722.28 317.63 L 722.96 320.04 L 723.60 322.47 L 724.20 324.93 L 724.77 327.40 L 725.29 329.91 L 725.78 332.43 L 726.23 334.97 L 726.64 337.54 L 727.01 340.12 L 727.34 342.73 L 727.63 345.36 L 727.88 348.00 L 728.10 350.66 L 728.27 353.34 L 728.40 356.04 L 728.50 358.76 L 728.55 361.49 L 728.56 364.24 L 728.53 367.00 L 728.47 369.78 L 728.36 372.57 L 728.21 375.37 L 728.02 378.19 L 727.79 381.02 L 727.52 383.86 L 727.20 386.71 L 726.85 389.58 L 726.45 392.45 L 726.02 395.33 L 725.54 398.22 L 725.02 401.12 L 724.46 404.03 L 723.86 406.95 L 723.22 409.87 L 722.54 412.80 L 721.82 415.73 L 721.05 418.67 L 720.25 421.62 L 719.40 424.56 L 718.51 427.51 L 717.58 430.47 L 716.61 433.42 L 715.60 436.38 L 714.55 439.34 L 713.46 442.30 L 712.33 445.25 L 711.16 448.21 L 709.95 451.17 L 708.70 454.12 L 707.41 457.07 L 706.08 460.02 L 704.71 462.97 L 703.30 465.91 L 701.85 468.85 L 700.36 471.78 L 698.83 474.70 L 697.27 477.62 L 695.66 480.53 L 694.02 483.44 L 692.34 486.33 L 690.62 489.22 L 688.87 492.10 L 687.07 494.97 L 685.24 497.83 L 683.37 500.68 L 681.47 503.51 L 679.53 506.34 L 677.55 509.15 L 675.54 511.95 L 673.49 514.74 L 671.41 517.51 L 669.29 520.27 L 667.14 523.01 L 664.96 525.74 L 662.74 528.45 L 660.48 531.14 L 658.19 533.82 L 655.87 536.48 L 653.52 539.12 L 651.14 541.75 L 648.72 544.35 L 646.27 546.94 L 643.79 549.51 L 641.28 552.05 L 638.74 554.58 L 636.17 557.08 L 633.57 559.56 L 630.94 562.02 L 628.28 564.46 L 625.59 566.87 L 622.88 569.27 L 620.14 571.63 L 617.37 573.98 L 614.57 576.29 L 611.75 578.59 L 608.91 580.85 L 606.03 583.09 L 603.14 585.31 L 600.21 587.50 L 597.27 589.66 L 594.30 591.79 L 591.31 593.90 L 588.30 595.98 L 585.26 598.03 L 582.20 600.05 L 579.12 602.04 L 576.03 604.00 L 572.91 605.93 L 569.77 607.83 L 566.61 609.70 L 563.44 611.54 L 560.25 613.35 L 557.04 615.13 L 553.81 616.87 L 550.57 618.59 L 547.31 620.27 L 544.04 621.92 L 540.75 623.53 L 537.45 625.11 L 534.13 626.66 L 530.80 628.18 L 527.46 629.66 L 524.11 631.11 L 520.75 632.52 L 517.37 633.90 L 513.99 635.24 L 510.60 636.55 L 507.19 637.82 L 503.78 639.06 L 500.37 640.26 L 496.94 641.43 L 493.51 642.56 L 490.07 643.66 L 486.63 644.72 L 483.18 645.74 L 479.73 646.73 L 476.27 647.68 L 472.81 648.59 L 469.35 649.47 L 465.89 650.31 L 462.42 651.11 L 458.96 651.88 L 455.49 652.60 L 452.03 653.30 L 448.56 653.95 L 445.10 654.57 L 441.64 655.15 L 438.19 655.69 L 434.73 656.19 L 431.28 656.66 L 427.84 657.09 L 424.40 657.48 L 420.97 657.84 L 417.54 658.16 L 414.12 658.44 L 410.71 658.68 L 407.31 658.89 L 403.92 659.05 L 400.53 659.18 L 397.16 659.28 L 393.79 659.33 L 390.44 659.35 L 387.10 659.34 L 383.77 659.28 L 380.46 659.19 L 377.15 659.06 L 373.87 658.90 L 370.59 658.70 L 367.34 658.46 L 364.10 658.19 L 360.87 657.88 L 357.66 657.53 L 354.47 657.15 L 351.30 656.73 L 348.15 656.28 L 345.02 655.79 L 341.90 655.27 L 338.81 654.71 L 335.73 654.12 L 332.68 653.49 L 329.65 652.83 L 326.65 652.13 L 323.66 651.40 L 320.70 650.64 L 317.77 649.85 L 314.86 649.02 L 311.97 648.15 L 309.11 647.26 L 306.28 646.33 L 303.47 645.37 L 300.69 644.38 L 297.94 643.36 L 295.21 642.30 L 292.52 641.22 L 289.85 640.11 L 287.21 638.96 L 284.61 637.78 L 282.03 636.58 L 279.48 635.34 L 276.97 634.08 L 274.49 632.79 L 272.04 631.47 L 269.62 630.12 L 267.24 628.75 L 264.89 627.34 L 262.57 625.91 L 260.29 624.46 L 258.04 622.98 L 255.83 621.47 L 253.66 619.94 L 251.52 618.38 L 249.41 616.80 L 247.35 615.19 L 245.32 613.56 L 243.32 611.91 L 241.37 610.23 L 239.46 608.53 L 237.58 606.81 L 235.74 605.07 L 233.94 603.31 L 232.18 601.53 L 230.46 599.72 L 228.78 597.90 L 227.14 596.06 L 225.54 594.20 L 223.99 592.32 L 222.47 590.42 L 221.00 588.51 L 219.56 586.58 L 218.17 584.63 L 216.83 582.67 L 215.52 580.69 L 214.26 578.69 L 213.04 576.69 L 211.86 574.66 L 210.73 572.63 L 209.64 570.58 L 208.60 568.52 L 207.60 566.45 L 206.64 564.36 L 205.73 562.27 L 204.86 560.16 L 204.04 558.05 L 203.26 555.92 L 202.53 553.79 L 201.84 551.65 L 201.19 549.50 L 200.60 547.34 L 200.05 545.18 L 199.54 543.01 L 199.08 540.84 L 198.67 538.66 L 198.30 536.47 L 197.97 534.29 L 197.70 532.09 L 197.47 529.90 L 197.28 527.70 L 197.14 525.50 L 197.05 523.30 L 197.01 521.10 L 197.01 518.90 L 197.05 516.70 L 197.14 514.50 L 197.28 512.30 L 197.47 510.10 L 197.70 507.91 L 197.97 505.71 L 198.30 503.53 L 198.67 501.34 L 199.08 499.16 L 199.54 496.99 L 200.05 494.82 L 200.60 492.66 L 201.19 490.50 L 201.84 488.35 L 202.53 486.21 L 203.26 484.08 L 204.04 481.95 L 204.86 479.84 L 205.73 477.73 L 206.64 475.64 L 207.60 473.55 L 208.60 471.48 L 209.64 469.42 L 210.73 467.37 L 211.86 465.34 L 213.04 463.31 L 214.26 461.31 L 215.52 459.31 L 216.83 457.33 L 218.17 455.37 L 219.56 453.42 L 221.00 451.49 L 222.47 449.58 L 223.99 447.68 L 225.54 445.80 L 227.14 443.94 L 228.78 442.10 L 230.46 440.28 L 232.18 438.47 L 233.94 436.69 L 235.74 434.93 L 237.58 433.19 L 239.46 431.47 L 241.37 429.77 L 243.32 428.09 L 245.32 426.44 L 247.35 424.81 L 249.41 423.20 L 251.52 421.62 L 253.66 420.06 L 255.83 418.53 L 258.04 417.02 L 260.29 415.54 L 262.57 414.09 L 264.89 412.66 L 267.24 411.25 L 269.62 409.88 L 272.04 408.53 L 274.49 407.21 L 276.97 405.92 L 279.48 404.66 L 282.03 403.42 L 284.61 402.22 L 287.21 401.04 L 289.85 399.89 L 292.52 398.78 L 295.21 397.70 L 297.94 396.64 L 300.69 395.62 L 303.47 394.63 L 306.28 393.67 L 309.11 392.74 L 311.97 391.85 L 314.86 390.98 L 317.77 390.15 L 320.70 389.36 L 323.66 388.60 L 326.65 387.87 L 329.65 387.17 L 332.68 386.51 L 335.73 385.88 L 338.81 385.29 L 341.90 384.73 L 345.02 384.21 L 348.15 383.72 L 351.30 383.27 L 354.47 382.85 L 357.66 382.47 L 360.87 382.12 L 364.10 381.81 L 367.34 381.54 L 370.59 381.30 L 373.87 381.10 L 377.15 380.94 L 380.46 380.81 L 383.77 380.72 L 387.10 380.66 L 390.44 380.65 L 393.79 380.67 L 397.16 380.72 L 400.53 380.82 L 403.92 380.95 L 407.31 381.11 L 410.71 381.32 L 414.12 381.56 L 417.54 381.84 L 420.97 382.16 L 424.40 382.52 L 427.84 382.91 L 431.28 383.34 L 434.73 383.81 L 438.19 384.31 L 441.64 384.85 L 445.10 385.43 L 448.56 386.05 L 452.03 386.70 L 455.49 387.40 L 458.96 388.12 L 462.42 388.89 L 465.89 389.69 L 469.35 390.53 L 472.81 391.41 L 476.27 392.32 L 479.73 393.27 L 483.18 394.26 L 486.63 395.28 L 490.07 396.34 L 493.51 397.44 L 496.94 398.57 L 500.37 399.74 L 503.78 400.94 L 507.19 402.18 L 510.60 403.45 L 513.99 404.76 L 517.37 406.10 L 520.75 407.48 L 524.11 408.89 L 527.46 410.34 L 530.80 411.82 L 534.13 413.34 L 537.45 414.89 L 540.75 416.47 L 544.04 418.08 L 547.31 419.73 L 550.57 421.41 L 553.81 423.13 L 557.04 424.87 L 560.25 426.65 L 563.44 428.46 L 566.61 430.30 L 569.77 432.17 L 572.91 434.07 L 576.03 436.00 L 579.12 437.96 L 582.20 439.95 L 585.26 441.97 L 588.30 444.02 L 591.31 446.10 L 594.30 448.21 L 597.27 450.34 L 600.21 452.50 L 603.14 454.69 L 606.03 456.91 L 608.91 459.15 L 611.75 461.41 L 614.57 463.71 L 617.37 466.02 L 620.14 468.37 L 622.88 470.73 L 625.59 473.13 L 628.28 475.54 L 630.94 477.98 L 633.57 480.44 L 636.17 482.92 L 638.74 485.42 L 641.28 487.95 L 643.79 490.49 L 646.27 493.06 L 648.72 495.65 L 651.14 498.25 L 653.52 500.88 L 655.87 503.52 L 658.19 506.18 L 660.48 508.86 L 662.74 511.55 L 664.96 514.26 L 667.14 516.99 L 669.29 519.73 L 671.41 522.49 L 673.49 525.26 L 675.54 528.05 L 677.55 530.85 L 679.53 533.66 L 681.47 536.49 L 683.37 539.32 L 685.24 542.17 L 687.07 545.03 L 688.87 547.90 L 690.62 550.78 L 692.34 553.67 L 694.02 556.56 L 695.66 559.47 L 697.27 562.38 L 698.83 565.30 L 700.36 568.22 L 701.85 571.15 L 703.30 574.09 L 704.71 577.03 L 706.08 579.98 L 707.41 582.93 L 708.70 585.88 L 709.95 588.83 L 711.16 591.79 L 712.33 594.75 L 713.46 597.70 L 714.55 600.66 L 715.60 603.62 L 716.61 606.58 L 717.58 609.53 L 718.51 612.49 L 719.40 615.44 L 720.25 618.38 L 721.05 621.33 L 721.82 624.27 L 722.54 627.20 L 723.22 630.13 L 723.86 633.05 L 724.46 635.97 L 725.02 638.88 L 725.54 641.78 L 726.02 644.67 L 726.45 647.55 L 726.85 650.42 L 727.20 653.29 L 727.52 656.14 L 727.79 658.98 L 728.02 661.81 L 728.21 664.63 L 728.36 667.43 L 728.47 670.22 L 728.53 673.00 L 728.56 675.76 L 728.55 678.51 L 728.50 681.24 L 728.40 683.96 L 728.27 686.66 L 728.10 689.34 L 727.88 692.00 L 727.63 694.64 L 727.34 697.27 L 727.01 699.88 L 726.64 702.46 L 726.23 705.03 L 725.78 707.57 L 725.29 710.09 L 724.77 712.60 L 724.20 715.07 L 723.60 717.53 L 722.96 719.96 L 722.28 722.37 L 721.57 724.75 L 720.82 727.11 L 720.03 729.44 L 719.21 731.74 L 718.35 734.02 L 717.45 736.28 L 716.52 738.50 L 715.55 740.70 L 714.55 742.87 L 713.51 745.00 L 712.43 747.11 L 711.33 749.20 L 710.19 751.24 L 709.01 753.26 L 707.81 755.25 L 706.57 757.21 L 705.29 759.13 L 703.99 761.03 L 702.65 762.89 L 701.28 764.71 L 699.88 766.50 L 698.45 768.26 L 696.99 769.99 L 695.50 771.68 L 693.98 773.33 L 692.43 774.95 L 690.85 776.53 L 689.25 778.08 L 687.61 779.59 L 685.95 781.06 L 684.26 782.50 L 682.54 783.90 L 680.80 785.26 L 679.03 786.58 L 677.24 787.87 L 675.42 789.11 L 673.58 790.32 L 671.71 791.49 L 669.82 792.61 L 667.90 793.70 L 665.97 794.75 L 664.01 795.76 L 662.03 796.72 L 660.02 797.65 L 658.00 798.53 L 655.96 799.37 L 653.89 800.17 L 651.81 800.93 L 649.71 801.65 L 647.59 802.32 L 645.45 802.96 L 643.30 803.55 L 641.13 804.09 L 638.94 804.60 L 636.74 805.06 L 634.52 805.47 L 632.28 805.85 L 630.04 806.18 L 627.78 806.47 L 625.50 806.71 L 623.21 806.91 L 620.91 807.06 L 618.60 807.17 L 616.28 807.24 L 613.95 807.26 L 611.61 807.24 L 609.26 807.17 L 606.90 807.06 L 604.53 806.90 L 602.15 806.70 L 599.77 806.46 L 597.37 806.17 L 594.98 805.83 L 592.58 805.45 L 590.17 805.03 L 587.76 804.56 L 585.34 804.05 L 582.92 803.49 L 580.50 802.89 L 578.07 802.24 L 575.65 801.55 L 573.22 800.81 L 570.79 800.03 L 568.36 799.21 L 565.93 798.34 L 563.51 797.42 L 561.08 796.47 L 558.66 795.47 L 556.24 794.42 L 553.82 793.33 L 551.41 792.20 L 549.00 791.02 L 546.59 789.80 L 544.19 788.54 L 541.80 787.24 L 539.41 785.89 L 537.03 784.50 L 534.65 783.06 L 532.29 781.59 L 529.93 780.07 L 527.58 778.51 L 525.25 776.91 L 522.92 775.27 L 520.60 773.58 L 518.29 771.86 L 516.00 770.10 L 513.71 768.29 L 511.44 766.44 L 509.19 764.56 L 506.94 762.63 L 504.71 760.67 L 502.50 758.66 L 500.30 756.62 L 498.11 754.54 L 495.95 752.42 L 493.79 750.26 L 491.66 748.07 L 489.54 745.84 L 487.44 743.57 L 485.36 741.27 L 483.30 738.92 L 481.25 736.55 L 479.23 734.14 L 477.23 731.69 L 475.25 729.21 L 473.28 726.69 L 471.34 724.14 L 469.43 721.56 L 467.53 718.94 L 465.66 716.29 L 463.81 713.61 L 461.98 710.90 L 460.18 708.16 L 458.40 705.38 L 456.65 702.58 L 454.92 699.74 L 453.22 696.88 L 451.54 693.98 L 449.89 691.06 L 448.27 688.11 L 446.67 685.13 L 445.10 682.13 L 443.56 679.09 L 442.04 676.04 L 440.56 672.95 L 439.10 669.84 L 437.67 666.71 L 436.27 663.55 L 434.90 660.37 L 433.56 657.16 L 432.25 653.93 L 430.97 650.68 L 429.73 647.41 L 428.51 644.12 L 427.32 640.81 L 426.17 637.47 L 425.05 634.12 L 423.95 630.75 L 422.90 627.36 L 421.87 623.95 L 420.88 620.53 L 419.92 617.08 L 418.99 613.63 L 418.09 610.15 L 417.23 606.67 L 416.41 603.16 L 415.61 599.65 L 414.85 596.12 L 414.13 592.58 L 413.44 589.02 L 412.78 585.46 L 412.16 581.88 L 411.57 578.29 L 411.02 574.70 L 410.51 571.09 L 410.02 567.48 L 409.58 563.86 L 409.17 560.23 L 408.79 556.59 L 408.45 552.95 L 408.15 549.30 L 407.88 545.65 L 407.65 541.99 L 407.45 538.33 L 407.29 534.67 L 407.16 531.01 L 407.07 527.34 L 407.02 523.67 L 407.00 520.00" fill="none" stroke="#ea580c" stroke-opacity="0.13" stroke-width="132" stroke-linecap="round" stroke-linejoin="round"/>
<path d="M 407.00 512.00 L 407.02 508.33 L 407.07 504.66 L 407.16 500.99 L 407.29 497.33 L 407.45 493.67 L 407.65 490.01 L 407.88 486.35 L 408.15 482.70 L 408.45 479.05 L 408.79 475.41 L 409.17 471.77 L 409.58 468.14 L 410.02 464.52 L 410.51 460.91 L 411.02 457.30 L 411.57 453.71 L 412.16 450.12 L 412.78 446.54 L 413.44 442.98 L 414.13 439.42 L 414.85 435.88 L 415.61 432.35 L 416.41 428.84 L 417.23 425.33 L 418.09 421.85 L 418.99 418.37 L 419.92 414.92 L 420.88 411.47 L 421.87 408.05 L 422.90 404.64 L 423.95 401.25 L 425.05 397.88 L 426.17 394.53 L 427.32 391.19 L 428.51 387.88 L 429.73 384.59 L 430.97 381.32 L 432.25 378.07 L 433.56 374.84 L 434.90 371.63 L 436.27 368.45 L 437.67 365.29 L 439.10 362.16 L 440.56 359.05 L 442.04 355.96 L 443.56 352.91 L 445.10 349.87 L 446.67 346.87 L 448.27 343.89 L 449.89 340.94 L 451.54 338.02 L 453.22 335.12 L 454.92 332.26 L 456.65 329.42 L 458.40 326.62 L 460.18 323.84 L 461.98 321.10 L 463.81 318.39 L 465.66 315.71 L 467.53 313.06 L 469.43 310.44 L 471.34 307.86 L 473.28 305.31 L 475.25 302.79 L 477.23 300.31 L 479.23 297.86 L 481.25 295.45 L 483.30 293.08 L 485.36 290.73 L 487.44 288.43 L 489.54 286.16 L 491.66 283.93 L 493.79 281.74 L 495.95 279.58 L 498.11 277.46 L 500.30 275.38 L 502.50 273.34 L 504.71 271.33 L 506.94 269.37 L 509.19 267.44 L 511.44 265.56 L 513.71 263.71 L 516.00 261.90 L 518.29 260.14 L 520.60 258.42 L 522.92 256.73 L 525.25 255.09 L 527.58 253.49 L 529.93 251.93 L 532.29 250.41 L 534.65 248.94 L 537.03 247.50 L 539.41 246.11 L 541.80 244.76 L 544.19 243.46 L 546.59 242.20 L 549.00 240.98 L 551.41 239.80 L 553.82 238.67 L 556.24 237.58 L 558.66 236.53 L 561.08 235.53 L 563.51 234.58 L 565.93 233.66 L 568.36 232.79 L 570.79 231.97 L 573.22 231.19 L 575.65 230.45 L 578.07 229.76 L 580.50 229.11 L 582.92 228.51 L 585.34 227.95 L 587.76 227.44 L 590.17 226.97 L 592.58 226.55 L 594.98 226.17 L 597.37 225.83 L 599.77 225.54 L 602.15 225.30 L 604.53 225.10 L 606.90 224.94 L 609.26 224.83 L 611.61 224.76 L 613.95 224.74 L 616.28 224.76 L 618.60 224.83 L 620.91 224.94 L 623.21 225.09 L 625.50 225.29 L 627.78 225.53 L 630.04 225.82 L 632.28 226.15 L 634.52 226.53 L 636.74 226.94 L 638.94 227.40 L 641.13 227.91 L 643.30 228.45 L 645.45 229.04 L 647.59 229.68 L 649.71 230.35 L 651.81 231.07 L 653.89 231.83 L 655.96 232.63 L 658.00 233.47 L 660.02 234.35 L 662.03 235.28 L 664.01 236.24 L 665.97 237.25 L 667.90 238.30 L 669.82 239.39 L 671.71 240.51 L 673.58 241.68 L 675.42 242.89 L 677.24 244.13 L 679.03 245.42 L 680.80 246.74 L 682.54 248.10 L 684.26 249.50 L 685.95 250.94 L 687.61 252.41 L 689.25 253.92 L 690.85 255.47 L 692.43 257.05 L 693.98 258.67 L 695.50 260.32 L 696.99 262.01 L 698.45 263.74 L 699.88 265.50 L 701.28 267.29 L 702.65 269.11 L 703.99 270.97 L 705.29 272.87 L 706.57 274.79 L 707.81 276.75 L 709.01 278.74 L 710.19 280.76 L 711.33 282.80 L 712.43 284.89 L 713.51 287.00 L 714.55 289.13 L 715.55 291.30 L 716.52 293.50 L 717.45 295.72 L 718.35 297.98 L 719.21 300.26 L 720.03 302.56 L 720.82 304.89 L 721.57 307.25 L 722.28 309.63 L 722.96 312.04 L 723.60 314.47 L 724.20 316.93 L 724.77 319.40 L 725.29 321.91 L 725.78 324.43 L 726.23 326.97 L 726.64 329.54 L 727.01 332.12 L 727.34 334.73 L 727.63 337.36 L 727.88 340.00 L 728.10 342.66 L 728.27 345.34 L 728.40 348.04 L 728.50 350.76 L 728.55 353.49 L 728.56 356.24 L 728.53 359.00 L 728.47 361.78 L 728.36 364.57 L 728.21 367.37 L 728.02 370.19 L 727.79 373.02 L 727.52 375.86 L 727.20 378.71 L 726.85 381.58 L 726.45 384.45 L 726.02 387.33 L 725.54 390.22 L 725.02 393.12 L 724.46 396.03 L 723.86 398.95 L 723.22 401.87 L 722.54 404.80 L 721.82 407.73 L 721.05 410.67 L 720.25 413.62 L 719.40 416.56 L 718.51 419.51 L 717.58 422.47 L 716.61 425.42 L 715.60 428.38 L 714.55 431.34 L 713.46 434.30 L 712.33 437.25 L 711.16 440.21 L 709.95 443.17 L 708.70 446.12 L 707.41 449.07 L 706.08 452.02 L 704.71 454.97 L 703.30 457.91 L 701.85 460.85 L 700.36 463.78 L 698.83 466.70 L 697.27 469.62 L 695.66 472.53 L 694.02 475.44 L 692.34 478.33 L 690.62 481.22 L 688.87 484.10 L 687.07 486.97 L 685.24 489.83 L 683.37 492.68 L 681.47 495.51 L 679.53 498.34 L 677.55 501.15 L 675.54 503.95 L 673.49 506.74 L 671.41 509.51 L 669.29 512.27 L 667.14 515.01 L 664.96 517.74 L 662.74 520.45 L 660.48 523.14 L 658.19 525.82 L 655.87 528.48 L 653.52 531.12 L 651.14 533.75 L 648.72 536.35 L 646.27 538.94 L 643.79 541.51 L 641.28 544.05 L 638.74 546.58 L 636.17 549.08 L 633.57 551.56 L 630.94 554.02 L 628.28 556.46 L 625.59 558.87 L 622.88 561.27 L 620.14 563.63 L 617.37 565.98 L 614.57 568.29 L 611.75 570.59 L 608.91 572.85 L 606.03 575.09 L 603.14 577.31 L 600.21 579.50 L 597.27 581.66 L 594.30 583.79 L 591.31 585.90 L 588.30 587.98 L 585.26 590.03 L 582.20 592.05 L 579.12 594.04 L 576.03 596.00 L 572.91 597.93 L 569.77 599.83 L 566.61 601.70 L 563.44 603.54 L 560.25 605.35 L 557.04 607.13 L 553.81 608.87 L 550.57 610.59 L 547.31 612.27 L 544.04 613.92 L 540.75 615.53 L 537.45 617.11 L 534.13 618.66 L 530.80 620.18 L 527.46 621.66 L 524.11 623.11 L 520.75 624.52 L 517.37 625.90 L 513.99 627.24 L 510.60 628.55 L 507.19 629.82 L 503.78 631.06 L 500.37 632.26 L 496.94 633.43 L 493.51 634.56 L 490.07 635.66 L 486.63 636.72 L 483.18 637.74 L 479.73 638.73 L 476.27 639.68 L 472.81 640.59 L 469.35 641.47 L 465.89 642.31 L 462.42 643.11 L 458.96 643.88 L 455.49 644.60 L 452.03 645.30 L 448.56 645.95 L 445.10 646.57 L 441.64 647.15 L 438.19 647.69 L 434.73 648.19 L 431.28 648.66 L 427.84 649.09 L 424.40 649.48 L 420.97 649.84 L 417.54 650.16 L 414.12 650.44 L 410.71 650.68 L 407.31 650.89 L 403.92 651.05 L 400.53 651.18 L 397.16 651.28 L 393.79 651.33 L 390.44 651.35 L 387.10 651.34 L 383.77 651.28 L 380.46 651.19 L 377.15 651.06 L 373.87 650.90 L 370.59 650.70 L 367.34 650.46 L 364.10 650.19 L 360.87 649.88 L 357.66 649.53 L 354.47 649.15 L 351.30 648.73 L 348.15 648.28 L 345.02 647.79 L 341.90 647.27 L 338.81 646.71 L 335.73 646.12 L 332.68 645.49 L 329.65 644.83 L 326.65 644.13 L 323.66 643.40 L 320.70 642.64 L 317.77 641.85 L 314.86 641.02 L 311.97 640.15 L 309.11 639.26 L 306.28 638.33 L 303.47 637.37 L 300.69 636.38 L 297.94 635.36 L 295.21 634.30 L 292.52 633.22 L 289.85 632.11 L 287.21 630.96 L 284.61 629.78 L 282.03 628.58 L 279.48 627.34 L 276.97 626.08 L 274.49 624.79 L 272.04 623.47 L 269.62 622.12 L 267.24 620.75 L 264.89 619.34 L 262.57 617.91 L 260.29 616.46 L 258.04 614.98 L 255.83 613.47 L 253.66 611.94 L 251.52 610.38 L 249.41 608.80 L 247.35 607.19 L 245.32 605.56 L 243.32 603.91 L 241.37 602.23 L 239.46 600.53 L 237.58 598.81 L 235.74 597.07 L 233.94 595.31 L 232.18 593.53 L 230.46 591.72 L 228.78 589.90 L 227.14 588.06 L 225.54 586.20 L 223.99 584.32 L 222.47 582.42 L 221.00 580.51 L 219.56 578.58 L 218.17 576.63 L 216.83 574.67 L 215.52 572.69 L 214.26 570.69 L 213.04 568.69 L 211.86 566.66 L 210.73 564.63 L 209.64 562.58 L 208.60 560.52 L 207.60 558.45 L 206.64 556.36 L 205.73 554.27 L 204.86 552.16 L 204.04 550.05 L 203.26 547.92 L 202.53 545.79 L 201.84 543.65 L 201.19 541.50 L 200.60 539.34 L 200.05 537.18 L 199.54 535.01 L 199.08 532.84 L 198.67 530.66 L 198.30 528.47 L 197.97 526.29 L 197.70 524.09 L 197.47 521.90 L 197.28 519.70 L 197.14 517.50 L 197.05 515.30 L 197.01 513.10 L 197.01 510.90 L 197.05 508.70 L 197.14 506.50 L 197.28 504.30 L 197.47 502.10 L 197.70 499.91 L 197.97 497.71 L 198.30 495.53 L 198.67 493.34 L 199.08 491.16 L 199.54 488.99 L 200.05 486.82 L 200.60 484.66 L 201.19 482.50 L 201.84 480.35 L 202.53 478.21 L 203.26 476.08 L 204.04 473.95 L 204.86 471.84 L 205.73 469.73 L 206.64 467.64 L 207.60 465.55 L 208.60 463.48 L 209.64 461.42 L 210.73 459.37 L 211.86 457.34 L 213.04 455.31 L 214.26 453.31 L 215.52 451.31 L 216.83 449.33 L 218.17 447.37 L 219.56 445.42 L 221.00 443.49 L 222.47 441.58 L 223.99 439.68 L 225.54 437.80 L 227.14 435.94 L 228.78 434.10 L 230.46 432.28 L 232.18 430.47 L 233.94 428.69 L 235.74 426.93 L 237.58 425.19 L 239.46 423.47 L 241.37 421.77 L 243.32 420.09 L 245.32 418.44 L 247.35 416.81 L 249.41 415.20 L 251.52 413.62 L 253.66 412.06 L 255.83 410.53 L 258.04 409.02 L 260.29 407.54 L 262.57 406.09 L 264.89 404.66 L 267.24 403.25 L 269.62 401.88 L 272.04 400.53 L 274.49 399.21 L 276.97 397.92 L 279.48 396.66 L 282.03 395.42 L 284.61 394.22 L 287.21 393.04 L 289.85 391.89 L 292.52 390.78 L 295.21 389.70 L 297.94 388.64 L 300.69 387.62 L 303.47 386.63 L 306.28 385.67 L 309.11 384.74 L 311.97 383.85 L 314.86 382.98 L 317.77 382.15 L 320.70 381.36 L 323.66 380.60 L 326.65 379.87 L 329.65 379.17 L 332.68 378.51 L 335.73 377.88 L 338.81 377.29 L 341.90 376.73 L 345.02 376.21 L 348.15 375.72 L 351.30 375.27 L 354.47 374.85 L 357.66 374.47 L 360.87 374.12 L 364.10 373.81 L 367.34 373.54 L 370.59 373.30 L 373.87 373.10 L 377.15 372.94 L 380.46 372.81 L 383.77 372.72 L 387.10 372.66 L 390.44 372.65 L 393.79 372.67 L 397.16 372.72 L 400.53 372.82 L 403.92 372.95 L 407.31 373.11 L 410.71 373.32 L 414.12 373.56 L 417.54 373.84 L 420.97 374.16 L 424.40 374.52 L 427.84 374.91 L 431.28 375.34 L 434.73 375.81 L 438.19 376.31 L 441.64 376.85 L 445.10 377.43 L 448.56 378.05 L 452.03 378.70 L 455.49 379.40 L 458.96 380.12 L 462.42 380.89 L 465.89 381.69 L 469.35 382.53 L 472.81 383.41 L 476.27 384.32 L 479.73 385.27 L 483.18 386.26 L 486.63 387.28 L 490.07 388.34 L 493.51 389.44 L 496.94 390.57 L 500.37 391.74 L 503.78 392.94 L 507.19 394.18 L 510.60 395.45 L 513.99 396.76 L 517.37 398.10 L 520.75 399.48 L 524.11 400.89 L 527.46 402.34 L 530.80 403.82 L 534.13 405.34 L 537.45 406.89 L 540.75 408.47 L 544.04 410.08 L 547.31 411.73 L 550.57 413.41 L 553.81 415.13 L 557.04 416.87 L 560.25 418.65 L 563.44 420.46 L 566.61 422.30 L 569.77 424.17 L 572.91 426.07 L 576.03 428.00 L 579.12 429.96 L 582.20 431.95 L 585.26 433.97 L 588.30 436.02 L 591.31 438.10 L 594.30 440.21 L 597.27 442.34 L 600.21 444.50 L 603.14 446.69 L 606.03 448.91 L 608.91 451.15 L 611.75 453.41 L 614.57 455.71 L 617.37 458.02 L 620.14 460.37 L 622.88 462.73 L 625.59 465.13 L 628.28 467.54 L 630.94 469.98 L 633.57 472.44 L 636.17 474.92 L 638.74 477.42 L 641.28 479.95 L 643.79 482.49 L 646.27 485.06 L 648.72 487.65 L 651.14 490.25 L 653.52 492.88 L 655.87 495.52 L 658.19 498.18 L 660.48 500.86 L 662.74 503.55 L 664.96 506.26 L 667.14 508.99 L 669.29 511.73 L 671.41 514.49 L 673.49 517.26 L 675.54 520.05 L 677.55 522.85 L 679.53 525.66 L 681.47 528.49 L 683.37 531.32 L 685.24 534.17 L 687.07 537.03 L 688.87 539.90 L 690.62 542.78 L 692.34 545.67 L 694.02 548.56 L 695.66 551.47 L 697.27 554.38 L 698.83 557.30 L 700.36 560.22 L 701.85 563.15 L 703.30 566.09 L 704.71 569.03 L 706.08 571.98 L 707.41 574.93 L 708.70 577.88 L 709.95 580.83 L 711.16 583.79 L 712.33 586.75 L 713.46 589.70 L 714.55 592.66 L 715.60 595.62 L 716.61 598.58 L 717.58 601.53 L 718.51 604.49 L 719.40 607.44 L 720.25 610.38 L 721.05 613.33 L 721.82 616.27 L 722.54 619.20 L 723.22 622.13 L 723.86 625.05 L 724.46 627.97 L 725.02 630.88 L 725.54 633.78 L 726.02 636.67 L 726.45 639.55 L 726.85 642.42 L 727.20 645.29 L 727.52 648.14 L 727.79 650.98 L 728.02 653.81 L 728.21 656.63 L 728.36 659.43 L 728.47 662.22 L 728.53 665.00 L 728.56 667.76 L 728.55 670.51 L 728.50 673.24 L 728.40 675.96 L 728.27 678.66 L 728.10 681.34 L 727.88 684.00 L 727.63 686.64 L 727.34 689.27 L 727.01 691.88 L 726.64 694.46 L 726.23 697.03 L 725.78 699.57 L 725.29 702.09 L 724.77 704.60 L 724.20 707.07 L 723.60 709.53 L 722.96 711.96 L 722.28 714.37 L 721.57 716.75 L 720.82 719.11 L 720.03 721.44 L 719.21 723.74 L 718.35 726.02 L 717.45 728.28 L 716.52 730.50 L 715.55 732.70 L 714.55 734.87 L 713.51 737.00 L 712.43 739.11 L 711.33 741.20 L 710.19 743.24 L 709.01 745.26 L 707.81 747.25 L 706.57 749.21 L 705.29 751.13 L 703.99 753.03 L 702.65 754.89 L 701.28 756.71 L 699.88 758.50 L 698.45 760.26 L 696.99 761.99 L 695.50 763.68 L 693.98 765.33 L 692.43 766.95 L 690.85 768.53 L 689.25 770.08 L 687.61 771.59 L 685.95 773.06 L 684.26 774.50 L 682.54 775.90 L 680.80 777.26 L 679.03 778.58 L 677.24 779.87 L 675.42 781.11 L 673.58 782.32 L 671.71 783.49 L 669.82 784.61 L 667.90 785.70 L 665.97 786.75 L 664.01 787.76 L 662.03 788.72 L 660.02 789.65 L 658.00 790.53 L 655.96 791.37 L 653.89 792.17 L 651.81 792.93 L 649.71 793.65 L 647.59 794.32 L 645.45 794.96 L 643.30 795.55 L 641.13 796.09 L 638.94 796.60 L 636.74 797.06 L 634.52 797.47 L 632.28 797.85 L 630.04 798.18 L 627.78 798.47 L 625.50 798.71 L 623.21 798.91 L 620.91 799.06 L 618.60 799.17 L 616.28 799.24 L 613.95 799.26 L 611.61 799.24 L 609.26 799.17 L 606.90 799.06 L 604.53 798.90 L 602.15 798.70 L 599.77 798.46 L 597.37 798.17 L 594.98 797.83 L 592.58 797.45 L 590.17 797.03 L 587.76 796.56 L 585.34 796.05 L 582.92 795.49 L 580.50 794.89 L 578.07 794.24 L 575.65 793.55 L 573.22 792.81 L 570.79 792.03 L 568.36 791.21 L 565.93 790.34 L 563.51 789.42 L 561.08 788.47 L 558.66 787.47 L 556.24 786.42 L 553.82 785.33 L 551.41 784.20 L 549.00 783.02 L 546.59 781.80 L 544.19 780.54 L 541.80 779.24 L 539.41 777.89 L 537.03 776.50 L 534.65 775.06 L 532.29 773.59 L 529.93 772.07 L 527.58 770.51 L 525.25 768.91 L 522.92 767.27 L 520.60 765.58 L 518.29 763.86 L 516.00 762.10 L 513.71 760.29 L 511.44 758.44 L 509.19 756.56 L 506.94 754.63 L 504.71 752.67 L 502.50 750.66 L 500.30 748.62 L 498.11 746.54 L 495.95 744.42 L 493.79 742.26 L 491.66 740.07 L 489.54 737.84 L 487.44 735.57 L 485.36 733.27 L 483.30 730.92 L 481.25 728.55 L 479.23 726.14 L 477.23 723.69 L 475.25 721.21 L 473.28 718.69 L 471.34 716.14 L 469.43 713.56 L 467.53 710.94 L 465.66 708.29 L 463.81 705.61 L 461.98 702.90 L 460.18 700.16 L 458.40 697.38 L 456.65 694.58 L 454.92 691.74 L 453.22 688.88 L 451.54 685.98 L 449.89 683.06 L 448.27 680.11 L 446.67 677.13 L 445.10 674.13 L 443.56 671.09 L 442.04 668.04 L 440.56 664.95 L 439.10 661.84 L 437.67 658.71 L 436.27 655.55 L 434.90 652.37 L 433.56 649.16 L 432.25 645.93 L 430.97 642.68 L 429.73 639.41 L 428.51 636.12 L 427.32 632.81 L 426.17 629.47 L 425.05 626.12 L 423.95 622.75 L 422.90 619.36 L 421.87 615.95 L 420.88 612.53 L 419.92 609.08 L 418.99 605.63 L 418.09 602.15 L 417.23 598.67 L 416.41 595.16 L 415.61 591.65 L 414.85 588.12 L 414.13 584.58 L 413.44 581.02 L 412.78 577.46 L 412.16 573.88 L 411.57 570.29 L 411.02 566.70 L 410.51 563.09 L 410.02 559.48 L 409.58 555.86 L 409.17 552.23 L 408.79 548.59 L 408.45 544.95 L 408.15 541.30 L 407.88 537.65 L 407.65 533.99 L 407.45 530.33 L 407.29 526.67 L 407.16 523.01 L 407.07 519.34 L 407.02 515.67 L 407.00 512.00" fill="none" stroke="#ffedd5" stroke-width="128" stroke-linecap="round" stroke-linejoin="round"/>
<path d="M 407.00 512.00 L 407.02 508.33 L 407.07 504.66 L 407.16 500.99 L 407.29 497.33 L 407.45 493.67 L 407.65 490.01 L 407.88 486.35 L 408.15 482.70 L 408.45 479.05 L 408.79 475.41 L 409.17 471.77 L 409.58 468.14 L 410.02 464.52 L 410.51 460.91 L 411.02 457.30 L 411.57 453.71 L 412.16 450.12 L 412.78 446.54 L 413.44 442.98 L 414.13 439.42 L 414.85 435.88 L 415.61 432.35 L 416.41 428.84 L 417.23 425.33 L 418.09 421.85 L 418.99 418.37 L 419.92 414.92 L 420.88 411.47 L 421.87 408.05 L 422.90 404.64 L 423.95 401.25 L 425.05 397.88 L 426.17 394.53 L 427.32 391.19 L 428.51 387.88 L 429.73 384.59 L 430.97 381.32 L 432.25 378.07 L 433.56 374.84 L 434.90 371.63 L 436.27 368.45 L 437.67 365.29 L 439.10 362.16 L 440.56 359.05 L 442.04 355.96 L 443.56 352.91 L 445.10 349.87 L 446.67 346.87 L 448.27 343.89 L 449.89 340.94 L 451.54 338.02 L 453.22 335.12 L 454.92 332.26 L 456.65 329.42 L 458.40 326.62 L 460.18 323.84 L 461.98 321.10 L 463.81 318.39 L 465.66 315.71 L 467.53 313.06 L 469.43 310.44 L 471.34 307.86 L 473.28 305.31 L 475.25 302.79 L 477.23 300.31 L 479.23 297.86 L 481.25 295.45 L 483.30 293.08 L 485.36 290.73 L 487.44 288.43 L 489.54 286.16 L 491.66 283.93 L 493.79 281.74 L 495.95 279.58 L 498.11 277.46 L 500.30 275.38 L 502.50 273.34 L 504.71 271.33 L 506.94 269.37 L 509.19 267.44 L 511.44 265.56 L 513.71 263.71 L 516.00 261.90 L 518.29 260.14 L 520.60 258.42 L 522.92 256.73 L 525.25 255.09 L 527.58 253.49 L 529.93 251.93 L 532.29 250.41 L 534.65 248.94 L 537.03 247.50 L 539.41 246.11 L 541.80 244.76 L 544.19 243.46 L 546.59 242.20 L 549.00 240.98 L 551.41 239.80 L 553.82 238.67 L 556.24 237.58 L 558.66 236.53 L 561.08 235.53 L 563.51 234.58 L 565.93 233.66 L 568.36 232.79 L 570.79 231.97 L 573.22 231.19 L 575.65 230.45 L 578.07 229.76 L 580.50 229.11 L 582.92 228.51 L 585.34 227.95 L 587.76 227.44 L 590.17 226.97 L 592.58 226.55 L 594.98 226.17 L 597.37 225.83 L 599.77 225.54 L 602.15 225.30 L 604.53 225.10 L 606.90 224.94 L 609.26 224.83 L 611.61 224.76 L 613.95 224.74 L 616.28 224.76 L 618.60 224.83 L 620.91 224.94 L 623.21 225.09 L 625.50 225.29 L 627.78 225.53 L 630.04 225.82 L 632.28 226.15 L 634.52 226.53 L 636.74 226.94 L 638.94 227.40 L 641.13 227.91 L 643.30 228.45 L 645.45 229.04 L 647.59 229.68 L 649.71 230.35 L 651.81 231.07 L 653.89 231.83 L 655.96 232.63 L 658.00 233.47 L 660.02 234.35 L 662.03 235.28 L 664.01 236.24 L 665.97 237.25 L 667.90 238.30 L 669.82 239.39 L 671.71 240.51 L 673.58 241.68 L 675.42 242.89 L 677.24 244.13 L 679.03 245.42 L 680.80 246.74 L 682.54 248.10 L 684.26 249.50 L 685.95 250.94 L 687.61 252.41 L 689.25 253.92 L 690.85 255.47 L 692.43 257.05 L 693.98 258.67 L 695.50 260.32 L 696.99 262.01 L 698.45 263.74 L 699.88 265.50 L 701.28 267.29 L 702.65 269.11 L 703.99 270.97 L 705.29 272.87 L 706.57 274.79 L 707.81 276.75 L 709.01 278.74 L 710.19 280.76 L 711.33 282.80 L 712.43 284.89 L 713.51 287.00 L 714.55 289.13 L 715.55 291.30 L 716.52 293.50 L 717.45 295.72 L 718.35 297.98 L 719.21 300.26 L 720.03 302.56 L 720.82 304.89 L 721.57 307.25 L 722.28 309.63 L 722.96 312.04 L 723.60 314.47 L 724.20 316.93 L 724.77 319.40 L 725.29 321.91 L 725.78 324.43 L 726.23 326.97 L 726.64 329.54 L 727.01 332.12 L 727.34 334.73 L 727.63 337.36 L 727.88 340.00 L 728.10 342.66 L 728.27 345.34 L 728.40 348.04 L 728.50 350.76 L 728.55 353.49 L 728.56 356.24 L 728.53 359.00 L 728.47 361.78 L 728.36 364.57 L 728.21 367.37 L 728.02 370.19 L 727.79 373.02 L 727.52 375.86 L 727.20 378.71 L 726.85 381.58 L 726.45 384.45 L 726.02 387.33 L 725.54 390.22 L 725.02 393.12 L 724.46 396.03 L 723.86 398.95 L 723.22 401.87 L 722.54 404.80 L 721.82 407.73 L 721.05 410.67 L 720.25 413.62 L 719.40 416.56 L 718.51 419.51 L 717.58 422.47 L 716.61 425.42 L 715.60 428.38 L 714.55 431.34 L 713.46 434.30 L 712.33 437.25 L 711.16 440.21 L 709.95 443.17 L 708.70 446.12 L 707.41 449.07 L 706.08 452.02 L 704.71 454.97 L 703.30 457.91 L 701.85 460.85 L 700.36 463.78 L 698.83 466.70 L 697.27 469.62 L 695.66 472.53 L 694.02 475.44 L 692.34 478.33 L 690.62 481.22 L 688.87 484.10 L 687.07 486.97 L 685.24 489.83 L 683.37 492.68 L 681.47 495.51 L 679.53 498.34 L 677.55 501.15 L 675.54 503.95 L 673.49 506.74 L 671.41 509.51 L 669.29 512.27 L 667.14 515.01 L 664.96 517.74 L 662.74 520.45 L 660.48 523.14 L 658.19 525.82 L 655.87 528.48 L 653.52 531.12 L 651.14 533.75 L 648.72 536.35 L 646.27 538.94 L 643.79 541.51 L 641.28 544.05 L 638.74 546.58 L 636.17 549.08 L 633.57 551.56 L 630.94 554.02 L 628.28 556.46 L 625.59 558.87 L 622.88 561.27 L 620.14 563.63 L 617.37 565.98 L 614.57 568.29 L 611.75 570.59 L 608.91 572.85 L 606.03 575.09 L 603.14 577.31 L 600.21 579.50 L 597.27 581.66 L 594.30 583.79 L 591.31 585.90 L 588.30 587.98 L 585.26 590.03 L 582.20 592.05 L 579.12 594.04 L 576.03 596.00 L 572.91 597.93 L 569.77 599.83 L 566.61 601.70 L 563.44 603.54 L 560.25 605.35 L 557.04 607.13 L 553.81 608.87 L 550.57 610.59 L 547.31 612.27 L 544.04 613.92 L 540.75 615.53 L 537.45 617.11 L 534.13 618.66 L 530.80 620.18 L 527.46 621.66 L 524.11 623.11 L 520.75 624.52 L 517.37 625.90 L 513.99 627.24 L 510.60 628.55 L 507.19 629.82 L 503.78 631.06 L 500.37 632.26 L 496.94 633.43 L 493.51 634.56 L 490.07 635.66 L 486.63 636.72 L 483.18 637.74 L 479.73 638.73 L 476.27 639.68 L 472.81 640.59 L 469.35 641.47 L 465.89 642.31 L 462.42 643.11 L 458.96 643.88 L 455.49 644.60 L 452.03 645.30 L 448.56 645.95 L 445.10 646.57 L 441.64 647.15 L 438.19 647.69 L 434.73 648.19 L 431.28 648.66 L 427.84 649.09 L 424.40 649.48 L 420.97 649.84 L 417.54 650.16 L 414.12 650.44 L 410.71 650.68 L 407.31 650.89 L 403.92 651.05 L 400.53 651.18 L 397.16 651.28 L 393.79 651.33 L 390.44 651.35 L 387.10 651.34 L 383.77 651.28 L 380.46 651.19 L 377.15 651.06 L 373.87 650.90 L 370.59 650.70 L 367.34 650.46 L 364.10 650.19 L 360.87 649.88 L 357.66 649.53 L 354.47 649.15 L 351.30 648.73 L 348.15 648.28 L 345.02 647.79 L 341.90 647.27 L 338.81 646.71 L 335.73 646.12 L 332.68 645.49 L 329.65 644.83 L 326.65 644.13 L 323.66 643.40 L 320.70 642.64 L 317.77 641.85 L 314.86 641.02 L 311.97 640.15 L 309.11 639.26 L 306.28 638.33 L 303.47 637.37 L 300.69 636.38 L 297.94 635.36 L 295.21 634.30 L 292.52 633.22 L 289.85 632.11 L 287.21 630.96 L 284.61 629.78 L 282.03 628.58 L 279.48 627.34 L 276.97 626.08 L 274.49 624.79 L 272.04 623.47 L 269.62 622.12 L 267.24 620.75 L 264.89 619.34 L 262.57 617.91 L 260.29 616.46 L 258.04 614.98 L 255.83 613.47 L 253.66 611.94 L 251.52 610.38 L 249.41 608.80 L 247.35 607.19 L 245.32 605.56 L 243.32 603.91 L 241.37 602.23 L 239.46 600.53 L 237.58 598.81 L 235.74 597.07 L 233.94 595.31 L 232.18 593.53 L 230.46 591.72 L 228.78 589.90 L 227.14 588.06 L 225.54 586.20 L 223.99 584.32 L 222.47 582.42 L 221.00 580.51 L 219.56 578.58 L 218.17 576.63 L 216.83 574.67 L 215.52 572.69 L 214.26 570.69 L 213.04 568.69 L 211.86 566.66 L 210.73 564.63 L 209.64 562.58 L 208.60 560.52 L 207.60 558.45 L 206.64 556.36 L 205.73 554.27 L 204.86 552.16 L 204.04 550.05 L 203.26 547.92 L 202.53 545.79 L 201.84 543.65 L 201.19 541.50 L 200.60 539.34 L 200.05 537.18 L 199.54 535.01 L 199.08 532.84 L 198.67 530.66 L 198.30 528.47 L 197.97 526.29 L 197.70 524.09 L 197.47 521.90 L 197.28 519.70 L 197.14 517.50 L 197.05 515.30 L 197.01 513.10 L 197.01 510.90 L 197.05 508.70 L 197.14 506.50 L 197.28 504.30 L 197.47 502.10 L 197.70 499.91 L 197.97 497.71 L 198.30 495.53 L 198.67 493.34 L 199.08 491.16 L 199.54 488.99 L 200.05 486.82 L 200.60 484.66 L 201.19 482.50 L 201.84 480.35 L 202.53 478.21 L 203.26 476.08 L 204.04 473.95 L 204.86 471.84 L 205.73 469.73 L 206.64 467.64 L 207.60 465.55 L 208.60 463.48 L 209.64 461.42 L 210.73 459.37 L 211.86 457.34 L 213.04 455.31 L 214.26 453.31 L 215.52 451.31 L 216.83 449.33 L 218.17 447.37 L 219.56 445.42 L 221.00 443.49 L 222.47 441.58 L 223.99 439.68 L 225.54 437.80 L 227.14 435.94 L 228.78 434.10 L 230.46 432.28 L 232.18 430.47 L 233.94 428.69 L 235.74 426.93 L 237.58 425.19 L 239.46 423.47 L 241.37 421.77 L 243.32 420.09 L 245.32 418.44 L 247.35 416.81 L 249.41 415.20 L 251.52 413.62 L 253.66 412.06 L 255.83 410.53 L 258.04 409.02 L 260.29 407.54 L 262.57 406.09 L 264.89 404.66 L 267.24 403.25 L 269.62 401.88 L 272.04 400.53 L 274.49 399.21 L 276.97 397.92 L 279.48 396.66 L 282.03 395.42 L 284.61 394.22 L 287.21 393.04 L 289.85 391.89 L 292.52 390.78 L 295.21 389.70 L 297.94 388.64 L 300.69 387.62 L 303.47 386.63 L 306.28 385.67 L 309.11 384.74 L 311.97 383.85 L 314.86 382.98 L 317.77 382.15 L 320.70 381.36 L 323.66 380.60 L 326.65 379.87 L 329.65 379.17 L 332.68 378.51 L 335.73 377.88 L 338.81 377.29 L 341.90 376.73 L 345.02 376.21 L 348.15 375.72 L 351.30 375.27 L 354.47 374.85 L 357.66 374.47 L 360.87 374.12 L 364.10 373.81 L 367.34 373.54 L 370.59 373.30 L 373.87 373.10 L 377.15 372.94 L 380.46 372.81 L 383.77 372.72 L 387.10 372.66 L 390.44 372.65 L 393.79 372.67 L 397.16 372.72 L 400.53 372.82 L 403.92 372.95 L 407.31 373.11 L 410.71 373.32 L 414.12 373.56 L 417.54 373.84 L 420.97 374.16 L 424.40 374.52 L 427.84 374.91 L 431.28 375.34 L 434.73 375.81 L 438.19 376.31 L 441.64 376.85 L 445.10 377.43 L 448.56 378.05 L 452.03 378.70 L 455.49 379.40 L 458.96 380.12 L 462.42 380.89 L 465.89 381.69 L 469.35 382.53 L 472.81 383.41 L 476.27 384.32 L 479.73 385.27 L 483.18 386.26 L 486.63 387.28 L 490.07 388.34 L 493.51 389.44 L 496.94 390.57 L 500.37 391.74 L 503.78 392.94 L 507.19 394.18 L 510.60 395.45 L 513.99 396.76 L 517.37 398.10 L 520.75 399.48 L 524.11 400.89 L 527.46 402.34 L 530.80 403.82 L 534.13 405.34 L 537.45 406.89 L 540.75 408.47 L 544.04 410.08 L 547.31 411.73 L 550.57 413.41 L 553.81 415.13 L 557.04 416.87 L 560.25 418.65 L 563.44 420.46 L 566.61 422.30 L 569.77 424.17 L 572.91 426.07 L 576.03 428.00 L 579.12 429.96 L 582.20 431.95 L 585.26 433.97 L 588.30 436.02 L 591.31 438.10 L 594.30 440.21 L 597.27 442.34 L 600.21 444.50 L 603.14 446.69 L 606.03 448.91 L 608.91 451.15 L 611.75 453.41 L 614.57 455.71 L 617.37 458.02 L 620.14 460.37 L 622.88 462.73 L 625.59 465.13 L 628.28 467.54 L 630.94 469.98 L 633.57 472.44 L 636.17 474.92 L 638.74 477.42 L 641.28 479.95 L 643.79 482.49 L 646.27 485.06 L 648.72 487.65 L 651.14 490.25 L 653.52 492.88 L 655.87 495.52 L 658.19 498.18 L 660.48 500.86 L 662.74 503.55 L 664.96 506.26 L 667.14 508.99 L 669.29 511.73 L 671.41 514.49 L 673.49 517.26 L 675.54 520.05 L 677.55 522.85 L 679.53 525.66 L 681.47 528.49 L 683.37 531.32 L 685.24 534.17 L 687.07 537.03 L 688.87 539.90 L 690.62 542.78 L 692.34 545.67 L 694.02 548.56 L 695.66 551.47 L 697.27 554.38 L 698.83 557.30 L 700.36 560.22 L 701.85 563.15 L 703.30 566.09 L 704.71 569.03 L 706.08 571.98 L 707.41 574.93 L 708.70 577.88 L 709.95 580.83 L 711.16 583.79 L 712.33 586.75 L 713.46 589.70 L 714.55 592.66 L 715.60 595.62 L 716.61 598.58 L 717.58 601.53 L 718.51 604.49 L 719.40 607.44 L 720.25 610.38 L 721.05 613.33 L 721.82 616.27 L 722.54 619.20 L 723.22 622.13 L 723.86 625.05 L 724.46 627.97 L 725.02 630.88 L 725.54 633.78 L 726.02 636.67 L 726.45 639.55 L 726.85 642.42 L 727.20 645.29 L 727.52 648.14 L 727.79 650.98 L 728.02 653.81 L 728.21 656.63 L 728.36 659.43 L 728.47 662.22 L 728.53 665.00 L 728.56 667.76 L 728.55 670.51 L 728.50 673.24 L 728.40 675.96 L 728.27 678.66 L 728.10 681.34 L 727.88 684.00 L 727.63 686.64 L 727.34 689.27 L 727.01 691.88 L 726.64 694.46 L 726.23 697.03 L 725.78 699.57 L 725.29 702.09 L 724.77 704.60 L 724.20 707.07 L 723.60 709.53 L 722.96 711.96 L 722.28 714.37 L 721.57 716.75 L 720.82 719.11 L 720.03 721.44 L 719.21 723.74 L 718.35 726.02 L 717.45 728.28 L 716.52 730.50 L 715.55 732.70 L 714.55 734.87 L 713.51 737.00 L 712.43 739.11 L 711.33 741.20 L 710.19 743.24 L 709.01 745.26 L 707.81 747.25 L 706.57 749.21 L 705.29 751.13 L 703.99 753.03 L 702.65 754.89 L 701.28 756.71 L 699.88 758.50 L 698.45 760.26 L 696.99 761.99 L 695.50 763.68 L 693.98 765.33 L 692.43 766.95 L 690.85 768.53 L 689.25 770.08 L 687.61 771.59 L 685.95 773.06 L 684.26 774.50 L 682.54 775.90 L 680.80 777.26 L 679.03 778.58 L 677.24 779.87 L 675.42 781.11 L 673.58 782.32 L 671.71 783.49 L 669.82 784.61 L 667.90 785.70 L 665.97 786.75 L 664.01 787.76 L 662.03 788.72 L 660.02 789.65 L 658.00 790.53 L 655.96 791.37 L 653.89 792.17 L 651.81 792.93 L 649.71 793.65 L 647.59 794.32 L 645.45 794.96 L 643.30 795.55 L 641.13 796.09 L 638.94 796.60 L 636.74 797.06 L 634.52 797.47 L 632.28 797.85 L 630.04 798.18 L 627.78 798.47 L 625.50 798.71 L 623.21 798.91 L 620.91 799.06 L 618.60 799.17 L 616.28 799.24 L 613.95 799.26 L 611.61 799.24 L 609.26 799.17 L 606.90 799.06 L 604.53 798.90 L 602.15 798.70 L 599.77 798.46 L 597.37 798.17 L 594.98 797.83 L 592.58 797.45 L 590.17 797.03 L 587.76 796.56 L 585.34 796.05 L 582.92 795.49 L 580.50 794.89 L 578.07 794.24 L 575.65 793.55 L 573.22 792.81 L 570.79 792.03 L 568.36 791.21 L 565.93 790.34 L 563.51 789.42 L 561.08 788.47 L 558.66 787.47 L 556.24 786.42 L 553.82 785.33 L 551.41 784.20 L 549.00 783.02 L 546.59 781.80 L 544.19 780.54 L 541.80 779.24 L 539.41 777.89 L 537.03 776.50 L 534.65 775.06 L 532.29 773.59 L 529.93 772.07 L 527.58 770.51 L 525.25 768.91 L 522.92 767.27 L 520.60 765.58 L 518.29 763.86 L 516.00 762.10 L 513.71 760.29 L 511.44 758.44 L 509.19 756.56 L 506.94 754.63 L 504.71 752.67 L 502.50 750.66 L 500.30 748.62 L 498.11 746.54 L 495.95 744.42 L 493.79 742.26 L 491.66 740.07 L 489.54 737.84 L 487.44 735.57 L 485.36 733.27 L 483.30 730.92 L 481.25 728.55 L 479.23 726.14 L 477.23 723.69 L 475.25 721.21 L 473.28 718.69 L 471.34 716.14 L 469.43 713.56 L 467.53 710.94 L 465.66 708.29 L 463.81 705.61 L 461.98 702.90 L 460.18 700.16 L 458.40 697.38 L 456.65 694.58 L 454.92 691.74 L 453.22 688.88 L 451.54 685.98 L 449.89 683.06 L 448.27 680.11 L 446.67 677.13 L 445.10 674.13 L 443.56 671.09 L 442.04 668.04 L 440.56 664.95 L 439.10 661.84 L 437.67 658.71 L 436.27 655.55 L 434.90 652.37 L 433.56 649.16 L 432.25 645.93 L 430.97 642.68 L 429.73 639.41 L 428.51 636.12 L 427.32 632.81 L 426.17 629.47 L 425.05 626.12 L 423.95 622.75 L 422.90 619.36 L 421.87 615.95 L 420.88 612.53 L 419.92 609.08 L 418.99 605.63 L 418.09 602.15 L 417.23 598.67 L 416.41 595.16 L 415.61 591.65 L 414.85 588.12 L 414.13 584.58 L 413.44 581.02 L 412.78 577.46 L 412.16 573.88 L 411.57 570.29 L 411.02 566.70 L 410.51 563.09 L 410.02 559.48 L 409.58 555.86 L 409.17 552.23 L 408.79 548.59 L 408.45 544.95 L 408.15 541.30 L 407.88 537.65 L 407.65 533.99 L 407.45 530.33 L 407.29 526.67 L 407.16 523.01 L 407.07 519.34 L 407.02 515.67 L 407.00 512.00" fill="none" stroke="#f97316" stroke-width="112" stroke-linecap="round" stroke-linejoin="round"/>
<path d="M 407.92 485.79 L 408.17 482.38 L 408.46 478.97 L 408.78 475.57 L 409.12 472.17 L 409.50 468.78 L 409.91 465.39 L 410.35 462.01 L 410.83 458.64 L 411.33 455.28 L 411.86 451.92 L 412.42 448.58 L 413.02 445.24 L 413.64 441.91 L 414.30 438.59 L 414.98 435.29 L 415.69 431.99 L 416.44 428.71 L 417.21 425.44 L 418.01 422.18 L 418.84 418.93 L 419.70 415.70 L 420.59 412.48 L 421.51 409.27 L 422.46 406.08 L 423.43 402.91 L 424.44 399.75 L 425.47 396.61 L 426.53 393.48 L 427.61 390.37 L 428.73 387.28 L 429.87 384.21 L 431.04 381.15 L 432.23 378.12 L 433.46 375.10 L 434.70 372.10 L 435.98 369.12 L 437.28 366.17 L 438.61 363.23 L 439.96 360.32 L 441.33 357.43 L 442.73 354.56 L 444.16 351.71 L 445.61 348.89 L 447.08 346.09 L 448.58 343.31 L 450.10 340.56 L 451.65 337.83 L 453.21 335.13 L 454.80 332.45 L 456.42 329.80 L 458.05 327.17 L 459.71 324.57 L 461.38 322.00 L 463.08 319.46 L 464.80 316.94 L 466.54 314.45 L 468.30 311.99 L 470.08 309.55 L 471.88 307.15 L 473.69 304.78 L 475.53 302.43 L 477.39 300.12 L 479.26 297.83 L 481.15 295.58 L 483.05 293.36 L 484.98 291.16 L 486.92 289.00 L 488.88 286.87 L 490.85 284.78 L 492.84 282.71 L 494.84 280.68 L 496.86 278.68 L 498.89 276.72 L 500.93 274.78 L 502.99 272.88 L 505.07 271.02 L 507.15 269.19 L 509.25 267.39 L 511.36 265.63 L 513.48 263.90 L 515.61 262.21 L 517.75 260.55 L 519.90 258.93 L 522.06 257.35 L 524.24 255.80 L 526.42 254.28 L 528.61 252.80 L 530.80 251.36 L 533.01 249.96 L 535.22 248.59 L 537.44 247.26 L 539.66 245.97 L 541.89 244.71 L 544.13 243.49 L 546.37 242.31 L 548.62 241.16 L 550.87 240.06 L 553.12 238.99 L 555.38 237.96 L 557.64 236.97 L 559.91 236.01 L 562.17 235.10 L 564.44 234.22 L 566.71 233.38 L 568.98 232.58 L 571.24 231.82 L 573.51 231.10 L 575.78 230.41 L 578.05 229.77 L 580.31 229.16 L 582.58 228.59 L 584.84 228.06 L 587.10 227.57 L 589.35 227.12 L 591.60 226.71 L 593.85 226.34 L 596.09 226.01 L 598.33 225.71 L 600.56 225.46 L 602.78 225.24 L 605.00 225.06 L 607.21 224.92 L 609.42 224.82 L 611.62 224.76 L 613.80 224.74 L 615.98 224.76 L 618.15 224.81 L 620.32 224.91 L 622.47 225.04 L 624.61 225.21 L 626.74 225.42 L 628.86 225.67 L 630.96 225.95 L 633.06 226.28 L 635.14 226.64 L 637.21 227.04 L 639.27 227.48 L 641.31 227.95 L 643.34 228.46 L 645.35 229.01 L 647.35 229.60 L 649.33 230.23 L 651.30 230.89 L 653.25 231.59 L 655.18 232.32 L 657.10 233.09 L 659.00 233.90 L 660.88 234.74 L 662.74 235.62 L 664.59 236.54 L 666.41 237.49 L 668.22 238.47 L 670.00 239.49 L 671.77 240.55 L 673.51 241.64 L 675.24 242.76 L 676.94 243.92 L 678.62 245.12 L 680.28 246.34 L 681.91 247.60 L 683.53 248.89 L 685.12 250.22 L 686.68 251.58 L 688.23 252.97 L 689.74 254.39 L 691.24 255.85 L 692.71 257.33 L 694.15 258.85 L 695.57 260.40 L 696.96 261.98 L 698.33 263.59 L 699.67 265.23 L 700.98 266.90 L 702.27 268.59 L 703.53 270.32 L 704.76 272.08 L 705.96 273.86 L 707.13 275.68 L 708.28 277.52 L 709.40 279.38 L 710.48 281.28 L 711.54 283.20 L 712.57 285.15 L 713.57 287.12 L 714.54 289.12 L 715.48 291.15 L 716.38 293.19 L 717.26 295.27 L 718.11 297.37 L 718.92 299.49 L 719.70 301.63 L 720.46 303.80 L 721.17 305.99 L 721.86 308.21 L 722.52 310.44 L 723.14 312.70 L 723.73 314.97 L 724.28 317.27 L 724.80 319.59 L 725.29 321.92 L 725.75 324.28 L 726.17 326.66 L 726.56 329.05 L 726.92 331.46 L 727.24 333.89 L 727.52 336.34 L 727.77 338.80 L 727.99 341.28 L 728.17 343.78 L 728.32 346.29 L 728.43 348.81 L 728.51 351.35 L 728.55 353.91 L 728.56 356.48 L 728.53 359.06 L 728.47 361.65 L 728.37 364.26 L 728.24 366.88 L 728.07 369.51" fill="none" stroke="#fb923c" stroke-width="112" stroke-linecap="round" stroke-linejoin="round"/>
<path d="M 418.24 421.27 L 418.65 419.67 L 419.07 418.07 L 419.49 416.47 L 419.92 414.88 L 420.36 413.30 L 420.81 411.71 L 421.26 410.13 L 421.72 408.55 L 422.19 406.98 L 422.66 405.41 L 423.14 403.84 L 423.63 402.28 L 424.12 400.72 L 424.62 399.17 L 425.13 397.62 L 425.65 396.07 L 426.17 394.53 L 426.70 392.99 L 427.23 391.46 L 427.77 389.93 L 428.32 388.40 L 428.87 386.88 L 429.44 385.36 L 430.00 383.85 L 430.58 382.34 L 431.16 380.84 L 431.75 379.34 L 432.34 377.85 L 432.94 376.36 L 433.55 374.87 L 434.16 373.39 L 434.78 371.92 L 435.41 370.45 L 436.04 368.98 L 436.68 367.52 L 437.32 366.07 L 437.98 364.62 L 438.63 363.17 L 439.30 361.73 L 439.97 360.30 L 440.64 358.87 L 441.32 357.45 L 442.01 356.03 L 442.71 354.62 L 443.40 353.21 L 444.11 351.81 L 444.82 350.41 L 445.54 349.02 L 446.26 347.64 L 446.99 346.26 L 447.73 344.88 L 448.47 343.52 L 449.22 342.15 L 449.97 340.80 L 450.73 339.45 L 451.49 338.11 L 452.26 336.77 L 453.03 335.44 L 453.81 334.11" fill="none" stroke="#fff7ed" stroke-width="120" stroke-linecap="round" stroke-linejoin="round"/>
<path d="M 637.46 476.17 L 638.64 477.32 L 639.81 478.48 L 640.98 479.65 L 642.14 480.82 L 643.30 481.99 L 644.45 483.17 L 645.59 484.35 L 646.73 485.54 L 647.86 486.73 L 648.98 487.92 L 650.10 489.12 L 651.20 490.33 L 652.31 491.53 L 653.40 492.75 L 654.49 493.96 L 655.57 495.18 L 656.65 496.40 L 657.72 497.63 L 658.78 498.86 L 659.83 500.09 L 660.88 501.33 L 661.92 502.57 L 662.95 503.82 L 663.98 505.06 L 665.00 506.32 L 666.01 507.57 L 667.01 508.83 L 668.01 510.09 L 669.00 511.35 L 669.98 512.62 L 670.96 513.89 L 671.92 515.17 L 672.88 516.45 L 673.84 517.73 L 674.78 519.01 L 675.72 520.29 L 676.65 521.58 L 677.57 522.88 L 678.49 524.17 L 679.39 525.47 L 680.29 526.77 L 681.19 528.07 L 682.07 529.37 L 682.95 530.68 L 683.81 531.99 L 684.68 533.30 L 685.53 534.62 L 686.37 535.93 L 687.21 537.25 L 688.04 538.57 L 688.86 539.90 L 689.68 541.22 L 690.48 542.55 L 691.28 543.88 L 692.07 545.21 L 692.85 546.54 L 693.63 547.88 L 694.39 549.21 L 695.15 550.55" fill="none" stroke="#fff7ed" stroke-width="120" stroke-linecap="round" stroke-linejoin="round"/>
<path d="M 480.30 638.56 L 478.71 639.01 L 477.12 639.45 L 475.53 639.88 L 473.93 640.30 L 472.34 640.71 L 470.74 641.12 L 469.15 641.52 L 467.55 641.91 L 465.96 642.29 L 464.36 642.66 L 462.76 643.03 L 461.17 643.39 L 459.57 643.74 L 457.97 644.09 L 456.38 644.42 L 454.78 644.75 L 453.18 645.07 L 451.59 645.38 L 449.99 645.68 L 448.40 645.98 L 446.80 646.27 L 445.21 646.55 L 443.61 646.82 L 442.02 647.09 L 440.42 647.34 L 438.83 647.59 L 437.24 647.83 L 435.65 648.06 L 434.06 648.29 L 432.47 648.50 L 430.88 648.71 L 429.29 648.91 L 427.71 649.11 L 426.12 649.29 L 424.54 649.47 L 422.96 649.64 L 421.38 649.80 L 419.80 649.95 L 418.22 650.10 L 416.64 650.23 L 415.07 650.36 L 413.49 650.48 L 411.92 650.60 L 410.35 650.70 L 408.78 650.80 L 407.21 650.89 L 405.65 650.97 L 404.09 651.05 L 402.52 651.11 L 400.97 651.17 L 399.41 651.22 L 397.85 651.26 L 396.30 651.30 L 394.75 651.32 L 393.20 651.34 L 391.66 651.35 L 390.12 651.35 L 388.58 651.35 L 387.04 651.34" fill="none" stroke="#fff7ed" stroke-width="120" stroke-linecap="round" stroke-linejoin="round"/>
<path d="M 368.18 373.48 L 369.77 373.36 L 371.37 373.25 L 372.97 373.15 L 374.57 373.06 L 376.18 372.98 L 377.79 372.91 L 379.40 372.85 L 381.02 372.79 L 382.64 372.74 L 384.27 372.71 L 385.89 372.68 L 387.52 372.66 L 389.15 372.65 L 390.79 372.65 L 392.43 372.65 L 394.07 372.67 L 395.71 372.69 L 397.36 372.73 L 399.01 372.77 L 400.66 372.82 L 402.32 372.88 L 403.97 372.95 L 405.63 373.03 L 407.29 373.11 L 408.95 373.21 L 410.62 373.31 L 412.29 373.43 L 413.96 373.55 L 415.63 373.68 L 417.30 373.82 L 418.97 373.97 L 420.65 374.13 L 422.33 374.30 L 424.01 374.47 L 425.69 374.66 L 427.37 374.85 L 429.05 375.06 L 430.74 375.27 L 432.42 375.49 L 434.11 375.72 L 435.80 375.96 L 437.48 376.21 L 439.17 376.46 L 440.86 376.73 L 442.56 377.00 L 444.25 377.29 L 445.94 377.58 L 447.63 377.88 L 449.33 378.19 L 451.02 378.51 L 452.71 378.84 L 454.41 379.18 L 456.10 379.52 L 457.80 379.88 L 459.49 380.24 L 461.19 380.61 L 462.88 380.99 L 464.57 381.38 L 466.27 381.78 L 467.96 382.19 L 469.65 382.61 L 471.35 383.03 L 473.04 383.47 L 474.73 383.91 L 476.42 384.36 L 478.11 384.82 L 479.80 385.29 L 481.49 385.77 L 483.18 386.26 L 484.87 386.76 L 486.55 387.26 L 488.24 387.77 L 489.92 388.29 L 491.60 388.82 L 493.28 389.36 L 494.96 389.91 L 496.64 390.47 L 498.32 391.03 L 499.99 391.61" fill="none" stroke="#ffedd5" stroke-width="120" stroke-linecap="round" stroke-linejoin="round"/>
<path d="M 368.18 373.48 L 369.77 373.36 L 371.37 373.25 L 372.97 373.15 L 374.57 373.06 L 376.18 372.98 L 377.79 372.91 L 379.40 372.85 L 381.02 372.79 L 382.64 372.74 L 384.27 372.71 L 385.89 372.68 L 387.52 372.66 L 389.15 372.65 L 390.79 372.65 L 392.43 372.65 L 394.07 372.67 L 395.71 372.69 L 397.36 372.73 L 399.01 372.77 L 400.66 372.82 L 402.32 372.88 L 403.97 372.95 L 405.63 373.03 L 407.29 373.11 L 408.95 373.21 L 410.62 373.31 L 412.29 373.43 L 413.96 373.55 L 415.63 373.68 L 417.30 373.82 L 418.97 373.97 L 420.65 374.13 L 422.33 374.30 L 424.01 374.47 L 425.69 374.66 L 427.37 374.85 L 429.05 375.06 L 430.74 375.27 L 432.42 375.49 L 434.11 375.72 L 435.80 375.96 L 437.48 376.21 L 439.17 376.46 L 440.86 376.73 L 442.56 377.00 L 444.25 377.29 L 445.94 377.58 L 447.63 377.88 L 449.33 378.19 L 451.02 378.51 L 452.71 378.84 L 454.41 379.18 L 456.10 379.52 L 457.80 379.88 L 459.49 380.24 L 461.19 380.61 L 462.88 380.99 L 464.57 381.38 L 466.27 381.78 L 467.96 382.19 L 469.65 382.61 L 471.35 383.03 L 473.04 383.47 L 474.73 383.91 L 476.42 384.36 L 478.11 384.82 L 479.80 385.29 L 481.49 385.77 L 483.18 386.26 L 484.87 386.76 L 486.55 387.26 L 488.24 387.77 L 489.92 388.29 L 491.60 388.82 L 493.28 389.36 L 494.96 389.91 L 496.64 390.47 L 498.32 391.03 L 499.99 391.61" fill="none" stroke="#f97316" stroke-width="112" stroke-linecap="round" stroke-linejoin="round"/>
<path d="M 703.88 456.71 L 703.18 458.15 L 702.48 459.58 L 701.76 461.02 L 701.04 462.45 L 700.30 463.88 L 699.56 465.32 L 698.81 466.75 L 698.05 468.17 L 697.28 469.60 L 696.50 471.02 L 695.71 472.45 L 694.91 473.87 L 694.10 475.29 L 693.29 476.71 L 692.46 478.12 L 691.63 479.54 L 690.79 480.95 L 689.93 482.36 L 689.07 483.76 L 688.20 485.17 L 687.32 486.57 L 686.44 487.97 L 685.54 489.37 L 684.63 490.76 L 683.72 492.16 L 682.80 493.54 L 681.86 494.93 L 680.92 496.32 L 679.97 497.70 L 679.02 499.08 L 678.05 500.45 L 677.07 501.82 L 676.09 503.19 L 675.10 504.56 L 674.10 505.92 L 673.09 507.28 L 672.07 508.64 L 671.05 509.99 L 670.01 511.34 L 668.97 512.68 L 667.92 514.03 L 666.86 515.36 L 665.79 516.70 L 664.72 518.03 L 663.63 519.36 L 662.54 520.68 L 661.44 522.00 L 660.33 523.32 L 659.22 524.63 L 658.10 525.93 L 656.96 527.24 L 655.83 528.54 L 654.68 529.83 L 653.52 531.12 L 652.36 532.41 L 651.19 533.69 L 650.01 534.96 L 648.83 536.24 L 647.64 537.50 L 646.44 538.77 L 645.23 540.02 L 644.01 541.28 L 642.79 542.53 L 641.56 543.77 L 640.32 545.01 L 639.08 546.24 L 637.83 547.47 L 636.57 548.69 L 635.30 549.91 L 634.03 551.12 L 632.75 552.33 L 631.47 553.53 L 630.17 554.73 L 628.87 555.92 L 627.56 557.11 L 626.25 558.29 L 624.93 559.46 L 623.60 560.63 L 622.27 561.80" fill="none" stroke="#ffedd5" stroke-width="120" stroke-linecap="round" stroke-linejoin="round"/>
<path d="M 703.88 456.71 L 703.18 458.15 L 702.48 459.58 L 701.76 461.02 L 701.04 462.45 L 700.30 463.88 L 699.56 465.32 L 698.81 466.75 L 698.05 468.17 L 697.28 469.60 L 696.50 471.02 L 695.71 472.45 L 694.91 473.87 L 694.10 475.29 L 693.29 476.71 L 692.46 478.12 L 691.63 479.54 L 690.79 480.95 L 689.93 482.36 L 689.07 483.76 L 688.20 485.17 L 687.32 486.57 L 686.44 487.97 L 685.54 489.37 L 684.63 490.76 L 683.72 492.16 L 682.80 493.54 L 681.86 494.93 L 680.92 496.32 L 679.97 497.70 L 679.02 499.08 L 678.05 500.45 L 677.07 501.82 L 676.09 503.19 L 675.10 504.56 L 674.10 505.92 L 673.09 507.28 L 672.07 508.64 L 671.05 509.99 L 670.01 511.34 L 668.97 512.68 L 667.92 514.03 L 666.86 515.36 L 665.79 516.70 L 664.72 518.03 L 663.63 519.36 L 662.54 520.68 L 661.44 522.00 L 660.33 523.32 L 659.22 524.63 L 658.10 525.93 L 656.96 527.24 L 655.83 528.54 L 654.68 529.83 L 653.52 531.12 L 652.36 532.41 L 651.19 533.69 L 650.01 534.96 L 648.83 536.24 L 647.64 537.50 L 646.44 538.77 L 645.23 540.02 L 644.01 541.28 L 642.79 542.53 L 641.56 543.77 L 640.32 545.01 L 639.08 546.24 L 637.83 547.47 L 636.57 548.69 L 635.30 549.91 L 634.03 551.12 L 632.75 552.33 L 631.47 553.53 L 630.17 554.73 L 628.87 555.92 L 627.56 557.11 L 626.25 558.29 L 624.93 559.46 L 623.60 560.63 L 622.27 561.80" fill="none" stroke="#f97316" stroke-width="112" stroke-linecap="round" stroke-linejoin="round"/>
<path d="M 463.94 705.82 L 463.05 704.49 L 462.16 703.16 L 461.27 701.83 L 460.39 700.48 L 459.52 699.13 L 458.65 697.77 L 457.79 696.41 L 456.93 695.04 L 456.08 693.66 L 455.24 692.27 L 454.40 690.87 L 453.57 689.47 L 452.74 688.06 L 451.92 686.65 L 451.11 685.22 L 450.30 683.80 L 449.50 682.36 L 448.71 680.92 L 447.92 679.47 L 447.14 678.01 L 446.36 676.55 L 445.59 675.08 L 444.83 673.60 L 444.08 672.12 L 443.33 670.64 L 442.58 669.14 L 441.85 667.64 L 441.12 666.13 L 440.40 664.62 L 439.69 663.10 L 438.98 661.58 L 438.28 660.05 L 437.58 658.51 L 436.90 656.97 L 436.22 655.42 L 435.54 653.87 L 434.88 652.31 L 434.22 650.74 L 433.57 649.17 L 432.92 647.60 L 432.29 646.02 L 431.66 644.43 L 431.03 642.84 L 430.42 641.24 L 429.81 639.64 L 429.21 638.03 L 428.62 636.42 L 428.03 634.80 L 427.46 633.18 L 426.89 631.56 L 426.32 629.92 L 425.77 628.29 L 425.22 626.65 L 424.68 625.00 L 424.15 623.35 L 423.62 621.70 L 423.11 620.04 L 422.60 618.38 L 422.10 616.71 L 421.60 615.04 L 421.12 613.37 L 420.64 611.69 L 420.17 610.01 L 419.71 608.32 L 419.25 606.63 L 418.81 604.93 L 418.37 603.24 L 417.94 601.53 L 417.52 599.83 L 417.10 598.12 L 416.70 596.41 L 416.30 594.69 L 415.91 592.97 L 415.53 591.25 L 415.15 589.53 L 414.79 587.80 L 414.43 586.07 L 414.08 584.33 L 413.74 582.60" fill="none" stroke="#ffedd5" stroke-width="120" stroke-linecap="round" stroke-linejoin="round"/>
<path d="M 463.94 705.82 L 463.05 704.49 L 462.16 703.16 L 461.27 701.83 L 460.39 700.48 L 459.52 699.13 L 458.65 697.77 L 457.79 696.41 L 456.93 695.04 L 456.08 693.66 L 455.24 692.27 L 454.40 690.87 L 453.57 689.47 L 452.74 688.06 L 451.92 686.65 L 451.11 685.22 L 450.30 683.80 L 449.50 682.36 L 448.71 680.92 L 447.92 679.47 L 447.14 678.01 L 446.36 676.55 L 445.59 675.08 L 444.83 673.60 L 444.08 672.12 L 443.33 670.64 L 442.58 669.14 L 441.85 667.64 L 441.12 666.13 L 440.40 664.62 L 439.69 663.10 L 438.98 661.58 L 438.28 660.05 L 437.58 658.51 L 436.90 656.97 L 436.22 655.42 L 435.54 653.87 L 434.88 652.31 L 434.22 650.74 L 433.57 649.17 L 432.92 647.60 L 432.29 646.02 L 431.66 644.43 L 431.03 642.84 L 430.42 641.24 L 429.81 639.64 L 429.21 638.03 L 428.62 636.42 L 428.03 634.80 L 427.46 633.18 L 426.89 631.56 L 426.32 629.92 L 425.77 628.29 L 425.22 626.65 L 424.68 625.00 L 424.15 623.35 L 423.62 621.70 L 423.11 620.04 L 422.60 618.38 L 422.10 616.71 L 421.60 615.04 L 421.12 613.37 L 420.64 611.69 L 420.17 610.01 L 419.71 608.32 L 419.25 606.63 L 418.81 604.93 L 418.37 603.24 L 417.94 601.53 L 417.52 599.83 L 417.10 598.12 L 416.70 596.41 L 416.30 594.69 L 415.91 592.97 L 415.53 591.25 L 415.15 589.53 L 414.79 587.80 L 414.43 586.07 L 414.08 584.33 L 413.74 582.60" fill="none" stroke="#f97316" stroke-width="112" stroke-linecap="round" stroke-linejoin="round"/>
</svg>
